<?xml version="1.0" standalone="no"?>
<!DOCTYPE svg PUBLIC "-//W3C//DTD SVG 20010904//EN"
 "http://www.w3.org/TR/2001/REC-SVG-20010904/DTD/svg10.dtd">
<svg version="1.0" xmlns="http://www.w3.org/2000/svg"
 width="1392.000000pt" height="1392.000000pt" viewBox="0 0 1392.000000 1392.000000"
 preserveAspectRatio="xMidYMid meet">
<metadata>
Created by potrace 1.14, written by Peter Selinger 2001-2017
</metadata>
<g transform="translate(0.000000,1392.000000) scale(0.100000,-0.100000)"
fill="#000000" stroke="none">
<path d="M5509 10416 c-2 -2 -30 -6 -62 -10 -128 -13 -356 -70 -454 -112 -18
-8 -50 -21 -70 -30 -161 -68 -304 -165 -429 -289 -135 -134 -211 -249 -266
-405 -19 -53 -22 -65 -33 -112 -51 -223 2 -471 148 -688 43 -63 170 -187 242
-236 157 -106 410 -199 635 -234 41 -6 86 -13 100 -16 31 -5 147 -14 215 -17
l50 -3 162 -319 162 -320 1 160 c4 363 7 475 13 481 4 4 26 9 49 11 39 3 108
13 208 29 150 24 381 104 510 176 146 81 283 210 361 339 294 487 85 1067
-500 1388 -51 28 -97 51 -100 51 -4 0 -25 9 -47 19 -61 29 -260 89 -354 105
-47 9 -98 18 -115 22 -32 7 -420 16 -426 10z"/>
<path d="M11837 9644 c-1 -1 -47 -5 -102 -8 -54 -4 -101 -9 -105 -11 -3 -1
-25 -6 -50 -9 -53 -7 -69 -10 -170 -35 -25 -7 -52 -13 -60 -15 -9 -2 -60 -21
-115 -41 -457 -171 -755 -487 -832 -885 -15 -75 -7 -262 15 -342 25 -92 69
-197 104 -250 10 -14 18 -30 18 -35 0 -4 -30 -44 -66 -88 -37 -44 -83 -100
-103 -124 -20 -24 -44 -53 -53 -64 -10 -11 -18 -21 -18 -23 0 -2 74 28 275
112 44 19 84 34 90 34 5 0 28 -17 50 -37 109 -98 350 -218 521 -258 10 -2 37
-9 59 -14 22 -6 56 -13 75 -16 19 -3 42 -8 50 -10 25 -8 154 -24 242 -32 200
-16 526 -4 683 27 28 5 61 12 75 14 113 20 310 83 411 132 270 131 439 318
529 583 60 178 49 395 -30 591 -25 65 -62 134 -72 138 -5 2 -8 8 -8 13 0 33
-186 238 -275 304 -22 17 -42 32 -45 35 -19 21 -140 91 -236 137 -159 75 -305
119 -527 157 -54 9 -323 25 -330 20z"/>
<path d="M9526 9433 c-84 -129 -120 -206 -161 -353 -27 -98 -65 -292 -65 -334
0 -43 -8 -28 -15 29 -3 28 -8 68 -11 90 -3 22 -8 53 -10 69 -2 16 -13 65 -24
109 -62 239 -204 389 -411 432 -103 22 -110 19 -39 -17 125 -62 235 -200 301
-375 22 -56 23 -59 44 -153 15 -66 22 -196 11 -207 -3 -4 -6 3 -6 15 0 36 -47
149 -87 210 -49 75 -135 165 -198 207 -105 69 -264 97 -396 70 -55 -12 -85
-24 -63 -26 55 -4 174 -39 227 -66 192 -97 348 -392 343 -653 l-1 -80 -267 -5
c-154 -2 -276 -8 -287 -14 -15 -9 -18 -19 -15 -58 1 -27 6 -104 9 -173 6 -125
11 -235 20 -385 2 -44 7 -129 10 -190 3 -60 8 -141 10 -180 3 -38 7 -110 10
-160 2 -49 7 -142 11 -205 10 -152 11 -345 2 -395 -99 -569 -379 -1106 -722
-1385 -61 -49 -67 -61 -33 -55 12 2 40 6 62 10 266 39 512 182 699 406 85 101
81 104 91 -51 3 -47 8 -101 10 -120 2 -19 7 -73 10 -120 4 -47 8 -101 10 -120
2 -19 6 -71 10 -115 3 -44 8 -91 10 -105 5 -35 18 -162 18 -180 0 -8 8 -80 19
-160 10 -80 21 -161 23 -180 5 -35 18 -121 20 -130 1 -3 5 -22 9 -43 8 -36 9
-37 55 -38 42 0 111 -4 276 -14 33 -1 63 -3 66 -4 6 -1 5 -65 -5 -427 -4 -144
-12 -171 -68 -220 -30 -26 -60 -41 -173 -90 -34 -14 -173 -55 -252 -74 l-52
-12 40 -40 c21 -22 37 -44 34 -48 -3 -5 -126 -9 -273 -10 -147 -1 -355 -3
-462 -6 -107 -2 -343 -6 -523 -8 l-329 -3 50 50 50 50 276 1 c152 0 276 3 276
6 0 3 7 37 14 75 26 123 29 166 30 365 1 177 -9 450 -19 511 -2 13 -6 56 -9
94 -24 274 -87 615 -162 880 -231 808 -647 1292 -1164 1352 -25 3 -48 8 -53
12 -16 15 75 231 135 319 47 70 145 169 208 211 117 79 198 105 325 106 93 0
105 -2 167 -33 176 -86 269 -291 198 -436 -41 -85 -150 -159 -235 -159 -121 0
-203 136 -165 273 17 61 104 125 157 115 10 -2 24 -4 30 -4 7 -1 30 -17 52
-36 68 -61 63 -138 -11 -170 -40 -16 -80 -5 -95 26 -24 50 17 100 53 65 20
-21 31 -20 43 2 15 28 -22 65 -66 65 -75 0 -118 -93 -76 -164 20 -33 86 -63
125 -55 123 22 168 145 89 245 -73 93 -193 106 -283 31 -125 -103 -105 -333
38 -416 150 -88 385 44 419 236 3 19 8 36 9 38 8 8 -25 145 -45 184 -44 87
-152 192 -219 213 -14 4 -29 11 -35 15 -10 8 -87 22 -135 25 -103 5 -248 -40
-360 -114 -158 -104 -283 -275 -356 -486 -15 -44 -30 -83 -33 -87 -4 -4 -30
-10 -58 -13 -49 -5 -52 -4 -48 18 2 12 6 47 9 78 7 74 23 176 35 217 5 18 10
36 10 40 0 14 23 108 38 157 73 244 215 507 351 650 122 127 258 224 361 256
71 22 151 26 191 11 59 -23 79 -84 45 -136 -36 -54 -115 -68 -115 -20 0 23 46
40 65 24 13 -11 19 -11 32 3 15 15 15 18 -2 37 -51 57 -168 -10 -149 -85 15
-61 90 -81 156 -42 146 85 97 272 -74 281 -126 7 -251 -41 -395 -153 -106 -83
-160 -138 -253 -262 -135 -179 -280 -523 -314 -743 -4 -21 -8 -41 -10 -45 -2
-3 -6 -28 -10 -56 -3 -27 -8 -61 -11 -74 -2 -13 -7 -55 -10 -95 -4 -39 -7 -71
-8 -72 -1 -1 -13 -5 -26 -9 -16 -5 -21 -4 -17 4 9 14 9 328 1 401 -29 248
-183 391 -415 385 -214 -6 -356 -180 -282 -347 21 -49 79 -103 130 -125 151
-63 310 91 241 233 -40 83 -135 111 -198 58 -70 -59 -51 -172 29 -170 37 1 41
41 4 50 -23 6 -26 10 -20 38 12 62 70 76 117 29 51 -51 33 -135 -37 -182 -91
-60 -234 42 -234 167 0 35 26 87 62 121 132 126 390 88 487 -71 54 -90 63
-147 65 -389 l2 -218 -81 -39 c-220 -105 -406 -289 -500 -494 -67 -144 -144
-400 -160 -526 -4 -30 -8 -58 -10 -61 -6 -9 -18 -201 -20 -309 0 -58 -6 -116
-12 -130 -45 -101 -58 -134 -79 -205 -49 -160 -59 -282 -37 -422 37 -234 152
-421 348 -564 67 -48 86 -68 113 -121 63 -119 222 -354 253 -374 12 -7 -98
-127 -120 -131 -9 -1 -261 -5 -561 -9 -300 -3 -563 -7 -585 -8 -35 -1 -43 3
-62 31 -20 29 -22 47 -24 175 -2 130 0 148 20 198 59 141 183 566 216 737 68
359 79 660 34 903 -41 219 -166 451 -304 564 -47 38 -51 44 -39 61 67 103 -38
243 -219 291 -28 7 -64 14 -79 14 -27 0 -28 2 -28 49 0 32 -6 56 -17 70 -16
18 -21 19 -43 8 -23 -12 -25 -18 -23 -70 2 -55 1 -57 -24 -57 -99 0 -219 -84
-244 -170 -17 -58 -14 -182 4 -219 13 -26 13 -30 -5 -42 -24 -17 -131 -148
-165 -203 -99 -156 -172 -359 -201 -559 -13 -95 -7 -425 11 -512 25 -124 25
-123 62 -250 77 -264 188 -672 191 -700 2 -16 4 -70 5 -118 1 -79 -1 -91 -24
-125 -14 -20 -31 -49 -36 -64 -10 -26 -14 -28 -73 -28 -188 -2 -1220 -16
-1718 -25 -146 -2 -499 -7 -785 -10 -286 -4 -587 -8 -670 -10 -82 -2 -187 -4
-232 -4 l-83 -1 0 -162 0 -163 98 -1 c738 -8 2278 -23 3027 -29 774 -6 1513
-13 2175 -20 300 -3 797 -8 1105 -11 1118 -9 1630 -13 2150 -19 1221 -12 1520
-15 3250 -29 504 -5 1857 -18 2003 -20 l112 -1 0 327 0 327 -312 -4 c-327 -4
-915 -12 -1443 -20 -496 -8 -1162 -17 -1399 -19 l-219 -2 -38 80 c-73 158 -99
269 -95 401 4 109 26 187 59 202 36 17 106 7 187 -26 55 -21 83 -28 105 -23
63 14 103 69 82 112 -24 46 -63 65 -135 65 -69 0 -125 -20 -211 -77 -37 -24
-36 -20 10 47 68 99 161 164 239 167 43 1 135 -38 190 -82 48 -38 117 -69 153
-70 66 0 142 65 132 115 -2 11 -4 25 -4 32 -1 6 -13 25 -27 42 -74 88 -233 98
-412 24 -8 -3 7 22 33 56 69 91 117 202 121 279 4 101 -37 185 -107 220 -91
45 -199 -34 -199 -145 0 -19 21 -87 46 -151 73 -184 66 -283 -22 -317 -51 -19
-149 -111 -179 -167 l-19 -37 -21 88 c-38 158 -105 234 -205 234 -34 0 -56 -5
-70 -18 -43 -39 -42 -119 2 -160 25 -22 89 -55 107 -55 18 0 83 -36 112 -62
47 -42 52 -61 30 -126 -25 -74 -32 -112 -33 -182 -2 -115 42 -281 108 -411 14
-28 24 -53 21 -55 -2 -2 -134 -6 -293 -8 -280 -3 -292 -2 -378 21 -109 30
-223 73 -281 107 -32 19 -50 40 -69 78 -23 48 -26 68 -31 213 -6 196 -15 387
-20 438 -4 33 -2 37 18 38 107 3 281 16 352 25 22 3 46 6 52 6 16 2 21 18 28
103 7 86 14 156 20 215 3 25 7 68 10 95 2 28 6 73 9 100 6 51 13 125 21 230 3
33 8 76 10 95 2 19 7 64 10 100 7 73 11 113 21 215 4 39 8 81 9 95 5 66 22
253 24 258 1 2 17 -18 38 -44 215 -282 493 -447 813 -480 l55 -6 -50 43 c-54
46 -216 208 -252 252 -212 258 -378 600 -473 973 -22 87 -41 177 -42 199 -2
36 8 179 17 260 2 17 7 66 10 110 8 87 9 94 19 235 4 52 9 111 11 130 2 19 6
73 10 120 4 47 8 101 10 120 2 19 7 80 10 135 4 55 9 116 10 135 4 41 16 268
20 358 1 34 -1 64 -4 67 -4 2 -148 7 -321 10 -307 7 -334 10 -325 39 2 6 6 47
9 92 14 201 72 355 172 456 l36 38 -33 -14 c-140 -59 -226 -136 -295 -266
l-45 -85 5 167 c2 92 6 171 9 175 3 5 8 27 11 49 4 22 16 72 27 110 11 38 29
98 39 134 10 36 34 107 53 158 19 50 33 92 32 92 -2 0 -33 -44 -69 -97z m-175
-5230 c1 -16 3 -50 4 -78 10 -157 16 -286 20 -415 3 -80 7 -163 10 -185 6 -43
40 -136 63 -172 8 -13 10 -23 6 -24 -5 -1 -103 -3 -217 -5 l-208 -4 43 62 c59
87 97 191 103 280 4 57 11 328 15 546 0 21 4 22 80 22 l80 0 1 -27z m-5166
-607 c127 -3 232 -5 235 -5 3 -1 7 -59 9 -130 2 -127 2 -129 -26 -169 l-28
-41 -250 -1 c-137 0 -285 -2 -328 -3 l-78 -2 -27 55 c-23 48 -27 71 -32 178
-3 77 -1 123 5 125 6 2 73 2 150 0 77 -2 244 -5 370 -7z m1822 -234 c-14 -15
-33 -41 -43 -57 -18 -29 -22 -30 -96 -31 -43 -1 -78 2 -78 6 0 13 80 81 110
94 15 6 51 12 80 13 l52 1 -25 -26z m861 -6 c-21 -20 -41 -43 -46 -52 -8 -14
-48 -17 -328 -20 -175 -3 -352 -6 -392 -7 -94 -3 -105 4 -68 42 65 68 64 68
488 70 l382 2 -36 -35z m150 -16 c-40 -47 -46 -50 -91 -50 -42 0 -46 2 -36 18
25 39 93 82 132 82 l38 0 -43 -50z m-3402 -98 c-11 -10 -15 4 -8 28 l7 25 3
-23 c2 -13 1 -26 -2 -30z m51 6 c-3 -8 -6 -5 -6 6 -1 11 2 17 5 13 3 -3 4 -12
1 -19z"/>
<path d="M1758 7975 c-1 -1 -34 -6 -73 -10 -265 -25 -573 -134 -785 -278 -120
-81 -255 -213 -324 -317 -91 -137 -128 -222 -157 -363 -39 -194 -13 -372 81
-562 55 -110 83 -149 178 -243 93 -93 205 -163 387 -243 69 -30 298 -91 390
-104 23 -3 50 -7 60 -9 141 -27 617 -28 762 -2 10 2 41 7 68 10 84 12 246 53
341 86 155 53 289 128 420 235 l31 25 178 -75 c98 -41 179 -74 181 -73 1 2
-52 68 -118 147 l-120 144 40 81 c80 159 103 244 108 391 8 233 -87 472 -266
669 -231 254 -594 430 -995 481 -53 7 -381 16 -387 10z"/>
</g>
</svg>
